<svg width="500" height="500" viewBox="0 0 500 500" fill="none" xmlns="http://www.w3.org/2000/svg">
<g clip-path="url(#clip0_350_2831)">
<path d="M250 500C388.071 500 500 388.071 500 250C500 111.929 388.071 0 250 0C111.929 0 0 111.929 0 250C0 388.071 111.929 500 250 500Z" fill="#F5C518"/>
<path d="M103.75 195.156V304.844H134.219V195.156H103.75Z" fill="black"/>
<path d="M199.254 195.156L192.435 246.395L188.198 218.526C186.97 209.599 185.792 201.809 184.664 195.156H146.406V304.844H172.254L172.354 232.412L183.234 304.844H201.636L211.965 230.816L212.04 304.844H237.812V195.156H199.254Z" fill="black"/>
<path d="M250 304.844V195.156H297.559C308.313 195.156 317.031 203.809 317.031 214.514V285.486C317.031 296.177 308.327 304.844 297.559 304.844H250ZM285.54 214.897C284.332 214.244 282.02 213.929 278.657 213.929V285.901C283.097 285.901 285.829 285.103 286.854 283.434C287.879 281.789 288.404 277.337 288.404 270.031V227.501C288.404 222.542 288.22 219.373 287.879 217.97C287.537 216.566 286.775 215.55 285.54 214.897H285.54Z" fill="black"/>
<path d="M374.495 222.62H376.442C387.382 222.62 396.25 231.187 396.25 241.742V285.722C396.25 296.282 387.385 304.844 376.442 304.844H374.495C367.801 304.844 361.883 301.636 358.297 296.729L356.542 303.435H329.219V195.156H358.373V230.381C362.14 225.687 367.945 222.62 374.495 222.62ZM368.253 276.107V250.116C368.253 245.822 367.977 243.003 367.403 241.706C366.828 240.409 364.536 239.576 362.927 239.576C361.319 239.576 358.839 240.253 358.357 241.394V285.389C358.908 286.642 361.273 287.339 362.927 287.339C364.582 287.339 366.989 286.664 367.495 285.389C368 284.114 368.253 281.005 368.253 276.107Z" fill="black"/>
</g>
<defs>
<clipPath id="clip0_350_2831">
<rect width="500" height="500" fill="white"/>
</clipPath>
</defs>
</svg>
