<svg width="500" height="500" viewBox="0 0 500 500" fill="none" xmlns="http://www.w3.org/2000/svg">
<path d="M180 250C180 236.461 183.844 223.819 190.5 213.107C197.156 223.819 201 236.461 201 250C201 263.539 197.156 276.181 190.5 286.893C183.844 276.181 180 263.539 180 250Z" fill="currentColor"/>
<path d="M309.5 286.893C316.156 276.181 320 263.539 320 250C320 236.461 316.156 223.819 309.5 213.107C302.844 223.819 299 236.461 299 250C299 263.539 302.844 276.181 309.5 286.893Z" fill="currentColor"/>
<path fill-rule="evenodd" clip-rule="evenodd" d="M250 500C388.071 500 500 388.071 500 250C500 111.929 388.071 0 250 0C111.929 0 0 111.929 0 250C0 388.071 111.929 500 250 500ZM309.5 286.893C321.849 306.768 343.879 320 369 320C407.66 320 439 288.66 439 250C439 211.34 407.66 180 369 180C343.879 180 321.849 193.232 309.5 213.107C297.151 193.232 275.121 180 250 180C224.879 180 202.849 193.232 190.5 213.107C178.151 193.232 156.121 180 131 180C92.3401 180 61 211.34 61 250C61 288.66 92.3401 320 131 320C156.121 320 178.151 306.768 190.5 286.893C202.849 306.768 224.879 320 250 320C275.121 320 297.151 306.768 309.5 286.893Z" fill="currentColor"/>
</svg>
