<svg width="500" height="500" viewBox="0 0 500 500" fill="none" xmlns="http://www.w3.org/2000/svg">
<g clip-path="url(#clip0_352_2856)">
<path d="M250 500C388.071 500 500 388.071 500 250C500 111.929 388.071 0 250 0C111.929 0 0 111.929 0 250C0 388.071 111.929 500 250 500Z" fill="#FF0000"/>
<path d="M386.279 172.705C383.007 158.847 373.369 147.934 361.131 144.23C338.948 137.5 250 137.5 250 137.5C250 137.5 161.052 137.5 138.869 144.23C126.631 147.934 116.993 158.847 113.721 172.705C107.778 197.822 107.778 250.227 107.778 250.227C107.778 250.227 107.778 302.632 113.721 327.75C116.993 341.607 126.631 352.066 138.869 355.77C161.052 362.5 250 362.5 250 362.5C250 362.5 338.948 362.5 361.131 355.77C373.369 352.066 383.007 341.607 386.279 327.75C392.222 302.632 392.222 250.227 392.222 250.227C392.222 250.227 392.222 197.822 386.279 172.705V172.705ZM220.909 297.807V202.647L295.252 250.229L220.909 297.807V297.807Z" fill="white"/>
</g>
<defs>
<clipPath id="clip0_352_2856">
<rect width="500" height="500" fill="white"/>
</clipPath>
</defs>
</svg>
